<svg width="949" height="830" viewBox="0 0 949 830" fill="none" xmlns="http://www.w3.org/2000/svg">
<g clip-path="url(#clip0_3_100)">
<g opacity="0.1">
<path d="M697.735 821.873C707.864 821.873 716.076 811.128 716.076 797.873C716.076 784.618 707.864 773.873 697.735 773.873C687.606 773.873 679.394 784.618 679.394 797.873C679.394 811.128 687.606 821.873 697.735 821.873Z" fill="#565378"/>
<path d="M712.248 695.199C714.818 690.74 716.15 685.676 716.109 680.53C716.109 667.248 707.897 656.53 697.768 656.53C687.639 656.53 679.436 667.273 679.436 680.53C679.384 685.673 680.705 690.737 683.263 695.199C680.754 699.679 679.436 704.729 679.436 709.864C679.436 714.999 680.754 720.048 683.263 724.528C680.754 729.01 679.436 734.061 679.436 739.197C679.436 744.334 680.754 749.384 683.263 753.866C680.705 758.328 679.384 763.392 679.436 768.535C679.436 781.818 687.647 792.535 697.768 792.535C707.889 792.535 716.109 781.793 716.109 768.535C716.161 763.392 714.839 758.328 712.281 753.866C714.791 749.384 716.109 744.334 716.109 739.197C716.109 734.061 714.791 729.01 712.281 724.528C714.791 720.048 716.109 714.999 716.109 709.864C716.109 704.729 714.791 699.679 712.281 695.199H712.248Z" fill="#565378"/>
<path d="M697.735 675.201C707.864 675.201 716.076 664.456 716.076 651.201C716.076 637.946 707.864 627.201 697.735 627.201C687.606 627.201 679.394 637.946 679.394 651.201C679.394 664.456 687.606 675.201 697.735 675.201Z" fill="#565378"/>
<path d="M697.735 645.863C707.864 645.863 716.076 635.118 716.076 621.863C716.076 608.608 707.864 597.863 697.735 597.863C687.606 597.863 679.394 608.608 679.394 621.863C679.394 635.118 687.606 645.863 697.735 645.863Z" fill="#565378"/>
<path d="M766.382 421.114C768.885 417.924 771.165 414.565 773.207 411.061L725.051 403.15L777.167 403.54C782.162 392.664 784.885 380.884 785.171 368.919C785.456 356.955 783.298 345.058 778.828 333.956L708.902 370.201L773.398 322.832C767.353 312.403 759.227 303.329 749.524 296.176C739.821 289.022 728.75 283.942 716.998 281.252C705.247 278.562 693.068 278.319 681.218 280.538C669.369 282.757 658.104 287.392 648.123 294.153C638.143 300.913 629.661 309.656 623.205 319.836C616.75 330.016 612.459 341.415 610.6 353.325C608.742 365.234 609.355 377.399 612.401 389.061C615.447 400.724 620.862 411.635 628.308 421.114C624.405 426.078 621.048 431.447 618.295 437.128L680.839 469.621L614.152 447.206C609.459 461.042 608.292 475.829 610.757 490.229C613.221 504.628 619.24 518.186 628.266 529.674C618.075 542.628 611.736 558.188 609.973 574.575C608.21 590.962 611.094 607.514 618.295 622.339C625.497 637.164 636.725 649.663 650.697 658.409C664.669 667.154 680.82 671.791 697.303 671.791C713.787 671.791 729.938 667.154 743.909 658.409C757.881 649.663 769.11 637.164 776.311 622.339C783.513 607.514 786.397 590.962 784.634 574.575C782.87 558.188 776.531 542.628 766.34 529.674C778.518 514.195 785.139 495.072 785.139 475.378C785.139 455.683 778.518 436.561 766.34 421.081L766.382 421.114Z" fill="#D58888"/>
<path opacity="0.1" d="M609.51 475.415C609.48 495.113 616.104 514.244 628.308 529.707C618.117 542.661 611.778 558.221 610.014 574.608C608.251 590.995 611.135 607.547 618.337 622.372C625.538 637.197 636.767 649.697 650.739 658.442C664.71 667.187 680.861 671.825 697.345 671.825C713.828 671.825 729.979 667.187 743.951 658.442C757.923 649.697 769.151 637.197 776.353 622.372C783.554 607.547 786.438 590.995 784.675 574.608C782.912 558.221 776.573 542.661 766.382 529.707C778.155 514.764 609.51 465.553 609.51 475.415Z" fill="black"/>
</g>
<g opacity="0.1">
<path d="M183.332 796.204C189.495 796.204 194.491 789.663 194.491 781.593C194.491 773.524 189.495 766.983 183.332 766.983C177.169 766.983 172.173 773.524 172.173 781.593C172.173 789.663 177.169 796.204 183.332 796.204Z" fill="#565378"/>
<path d="M192.208 719.091C193.766 716.374 194.571 713.29 194.541 710.159C194.541 702.089 189.559 695.548 183.374 695.548C177.188 695.548 172.215 702.089 172.215 710.159C172.182 713.29 172.985 716.373 174.54 719.091C173.016 721.82 172.215 724.894 172.215 728.019C172.215 731.145 173.016 734.219 174.54 736.948C173.016 739.677 172.215 742.75 172.215 745.876C172.215 749.002 173.016 752.075 174.54 754.804C172.984 757.519 172.181 760.6 172.215 763.729C172.215 771.806 177.197 778.348 183.374 778.348C189.551 778.348 194.541 771.806 194.541 763.729C194.572 760.599 193.767 757.518 192.208 754.804C193.737 752.077 194.539 749.003 194.539 745.876C194.539 742.749 193.737 739.675 192.208 736.948C193.737 734.22 194.539 731.146 194.539 728.019C194.539 724.893 193.737 721.819 192.208 719.091V719.091Z" fill="#565378"/>
<path d="M183.332 706.913C189.495 706.913 194.491 700.371 194.491 692.302C194.491 684.232 189.495 677.691 183.332 677.691C177.169 677.691 172.173 684.232 172.173 692.302C172.173 700.371 177.169 706.913 183.332 706.913Z" fill="#565378"/>
<path d="M183.332 689.056C189.495 689.056 194.491 682.514 194.491 674.445C194.491 666.376 189.495 659.834 183.332 659.834C177.169 659.834 172.173 666.376 172.173 674.445C172.173 682.514 177.169 689.056 183.332 689.056Z" fill="#565378"/>
<path d="M141.561 552.229C140.037 550.289 138.65 548.244 137.41 546.111L166.743 541.296L135.019 541.537C131.982 534.919 130.325 527.752 130.149 520.473C129.973 513.194 131.283 505.955 133.997 499.199L176.532 521.289L137.285 492.4C140.966 486.055 145.914 480.536 151.82 476.185C157.726 471.834 164.465 468.745 171.616 467.11C178.767 465.474 186.179 465.328 193.389 466.68C200.6 468.031 207.455 470.852 213.528 474.966C219.601 479.081 224.763 484.401 228.692 490.595C232.62 496.79 235.232 503.726 236.365 510.973C237.497 518.221 237.126 525.623 235.274 532.721C233.423 539.818 230.13 546.459 225.601 552.229C227.977 555.247 230.02 558.512 231.696 561.967L193.619 581.758L234.22 568.135C237.071 576.561 237.776 585.564 236.271 594.331C234.767 603.097 231.099 611.35 225.601 618.343C231.804 626.229 235.663 635.701 236.736 645.676C237.809 655.652 236.053 665.728 231.669 674.752C227.285 683.776 220.449 691.385 211.944 696.709C203.439 702.032 193.607 704.855 183.573 704.855C173.539 704.855 163.707 702.032 155.202 696.709C146.697 691.385 139.861 683.776 135.477 674.752C131.093 665.728 129.337 655.652 130.41 645.676C131.483 635.701 135.342 626.229 141.545 618.343C134.132 608.918 130.103 597.276 130.103 585.286C130.103 573.296 134.132 561.654 141.545 552.229H141.561Z" fill="#D58888"/>
<path opacity="0.1" d="M237.042 585.286C237.06 597.279 233.029 608.926 225.601 618.343C231.804 626.229 235.663 635.701 236.736 645.676C237.809 655.652 236.053 665.727 231.669 674.752C227.285 683.776 220.449 691.385 211.944 696.709C203.439 702.032 193.607 704.855 183.573 704.855C173.539 704.855 163.707 702.032 155.202 696.709C146.697 691.385 139.861 683.776 135.477 674.752C131.093 665.727 129.337 655.652 130.41 645.676C131.483 635.701 135.342 626.229 141.545 618.343C134.379 609.286 237.042 579.284 237.042 585.286Z" fill="black"/>
</g>
<g opacity="0.1">
<path d="M434.904 808.922C443.154 808.922 449.841 800.169 449.841 789.372C449.841 778.575 443.154 769.822 434.904 769.822C426.655 769.822 419.968 778.575 419.968 789.372C419.968 800.169 426.655 808.922 434.904 808.922Z" fill="#565378"/>
<path d="M446.727 705.726C448.809 702.088 449.884 697.962 449.841 693.771C449.841 682.979 443.199 674.221 434.896 674.221C426.593 674.221 419.951 682.979 419.951 693.771C419.907 697.963 420.985 702.09 423.073 705.726C421.026 709.376 419.952 713.491 419.952 717.676C419.952 721.861 421.026 725.975 423.073 729.626C421.026 733.275 419.952 737.388 419.952 741.572C419.952 745.755 421.026 749.869 423.073 753.518C420.985 757.153 419.907 761.28 419.951 765.472C419.951 776.264 426.643 785.022 434.896 785.022C443.149 785.022 449.841 776.264 449.841 765.472C449.884 761.282 448.809 757.155 446.727 753.518C448.769 749.867 449.841 745.754 449.841 741.572C449.841 737.389 448.769 733.276 446.727 729.626C448.769 725.974 449.841 721.86 449.841 717.676C449.841 713.492 448.769 709.378 446.727 705.726V705.726Z" fill="#565378"/>
<path d="M434.904 689.43C443.154 689.43 449.841 680.677 449.841 669.879C449.841 659.082 443.154 650.329 434.904 650.329C426.655 650.329 419.968 659.082 419.968 669.879C419.968 680.677 426.655 689.43 434.904 689.43Z" fill="#565378"/>
<path d="M434.904 665.529C443.154 665.529 449.841 656.777 449.841 645.979C449.841 635.182 443.154 626.429 434.904 626.429C426.655 626.429 419.968 635.182 419.968 645.979C419.968 656.777 426.655 665.529 434.904 665.529Z" fill="#565378"/>
<path d="M379.019 482.438C376.977 479.842 375.118 477.107 373.456 474.253L412.703 467.811L370.259 468.126C366.187 459.267 363.965 449.67 363.729 439.922C363.494 430.174 365.25 420.481 368.889 411.435L425.846 440.972L373.315 402.37C378.223 393.842 384.837 386.418 392.744 380.561C400.651 374.705 409.681 370.542 419.269 368.332C428.858 366.123 438.8 365.914 448.473 367.72C458.146 369.526 467.342 373.307 475.488 378.826C483.634 384.346 490.553 391.487 495.814 399.801C501.075 408.116 504.565 417.426 506.065 427.149C507.565 436.873 507.043 446.802 504.532 456.315C502.021 465.828 497.574 474.721 491.471 482.438C494.649 486.483 497.382 490.858 499.624 495.488L448.679 521.954L503.003 503.69C506.819 514.965 507.763 527.013 505.75 538.743C503.736 550.474 498.828 561.518 491.471 570.875C499.772 581.428 504.935 594.104 506.371 607.452C507.806 620.801 505.456 634.285 499.59 646.361C493.723 658.437 484.576 668.62 473.194 675.743C461.812 682.867 448.656 686.645 435.228 686.645C421.8 686.645 408.644 682.867 397.262 675.743C385.881 668.62 376.734 658.437 370.867 646.361C365 634.285 362.65 620.801 364.086 607.452C365.521 594.104 370.685 581.428 378.986 570.875C369.068 558.263 363.676 542.684 363.676 526.64C363.676 510.596 369.068 495.017 378.986 482.405L379.019 482.438Z" fill="#D58888"/>
<path opacity="0.1" d="M506.781 526.677C506.806 542.724 501.411 558.31 491.471 570.908C499.772 581.461 504.935 594.137 506.371 607.486C507.806 620.834 505.457 634.318 499.59 646.394C493.723 658.471 484.576 668.653 473.194 675.777C461.812 682.9 448.656 686.678 435.228 686.678C421.8 686.678 408.644 682.9 397.262 675.777C385.881 668.653 376.734 658.471 370.867 646.394C365 634.318 362.65 620.834 364.086 607.486C365.521 594.137 370.685 581.461 378.986 570.908C369.396 558.738 506.781 518.641 506.781 526.677Z" fill="black"/>
</g>
<path d="M949 807.162C949 812.866 907.304 818.079 838.366 822.105C825.829 822.827 812.395 823.517 798.148 824.164C785.838 824.718 772.935 825.24 759.441 825.733C746.367 826.198 732.792 826.63 718.716 827.028C674.263 828.298 625.12 829.211 572.912 829.668C560.242 829.784 547.403 829.873 534.396 829.934C520.846 829.994 507.141 830.022 493.281 830.017C241.592 830.017 37.5698 819.797 37.5698 807.187C37.5698 794.577 241.592 784.358 493.281 784.358C601.639 784.358 701.147 786.259 779.359 789.414L787.911 789.762H787.961C886.481 793.938 949 800.222 949 807.162Z" fill="#565378"/>
<path opacity="0.15" d="M949 807.162C949 812.866 907.304 818.079 838.366 822.105C825.829 822.827 812.395 823.517 798.148 824.164C785.838 824.718 772.935 825.24 759.441 825.733C746.367 826.198 732.792 826.63 718.716 827.028C674.263 828.298 625.12 829.211 572.912 829.668C560.242 829.784 547.403 829.873 534.396 829.934C520.846 829.994 507.141 830.022 493.281 830.017C241.592 830.017 37.5698 819.797 37.5698 807.187C37.5698 794.577 241.592 784.358 493.281 784.358C601.639 784.358 701.147 786.259 779.359 789.414L787.911 789.762H787.961C886.481 793.938 949 800.222 949 807.162Z" fill="black"/>
<path d="M911.43 803.144C911.43 807.91 869.734 812.276 800.797 815.597C788.268 816.203 774.826 816.776 760.587 817.315C748.271 817.78 735.368 818.217 721.879 818.627C708.805 819.014 695.23 819.377 681.155 819.714C636.694 820.777 587.55 821.541 535.342 821.923C522.683 822.017 509.845 822.089 496.826 822.138C483.276 822.188 469.574 822.213 455.719 822.213C204.031 822.213 0 813.671 0 803.119C0 792.568 204.031 784.026 455.719 784.026C564.07 784.026 663.578 785.612 741.789 788.251L750.341 788.542H750.399C848.952 792.087 911.43 797.308 911.43 803.144Z" fill="#565378"/>
<path d="M117.699 629.7L106.258 594.676L380.248 591.679L391.473 626.354L117.699 629.7Z" fill="#565378"/>
<path opacity="0.15" d="M117.699 629.7L106.258 594.676L380.248 591.679L391.473 626.354L117.699 629.7Z" fill="black"/>
<path d="M99.4333 629.7L87.9921 594.676L361.982 591.679L373.207 626.354L99.4333 629.7Z" fill="#565378"/>
<path d="M567.167 575.881C538.838 575.881 516.512 564.638 500.189 542.151C483.865 519.665 475.704 492.425 475.704 460.431C475.704 428.221 483.597 401.036 499.383 378.876C515.169 356.717 537.437 345.648 566.187 345.67C596.674 345.67 619.645 357.345 635.099 380.694C650.553 404.044 658.283 431.068 658.289 461.767C658.289 492.245 650.291 518.888 634.294 541.695C618.297 564.502 595.922 575.897 567.167 575.881ZM567.997 550.586C586.634 550.586 600.563 542.464 609.784 526.221C619.006 509.977 623.617 489.5 623.617 464.789C623.617 437.283 618.898 414.761 609.461 397.223C600.023 379.684 585.549 370.912 566.037 370.907C528.952 370.907 510.409 400.361 510.409 459.269C510.409 520.152 529.6 550.591 567.98 550.586H567.997ZM577.329 792.817H536.355L804.599 350.178H844.801L577.329 792.817ZM814.637 797.358C785.882 797.358 763.465 786.013 747.385 763.322C731.306 740.631 723.233 713.388 723.166 681.593C723.166 649.599 731.004 622.522 746.679 600.362C762.355 578.202 784.678 567.134 813.649 567.156C843.921 567.156 866.731 578.831 882.08 602.18C897.429 625.53 905.106 652.551 905.112 683.245C905.112 713.524 897.166 740.116 881.275 763.023C865.383 785.93 843.165 797.375 814.621 797.358H814.637ZM815.119 771.416C833.667 771.416 847.521 763.433 856.682 747.466C865.843 731.499 870.423 711.105 870.423 686.283C870.423 659.718 865.787 637.44 856.516 619.447C847.245 601.455 832.801 592.445 813.184 592.417C775.883 592.417 757.232 621.871 757.232 680.779C757.221 741.209 776.511 771.421 815.102 771.416H815.119Z" fill="#565378"/>
<path d="M567.167 575.881C538.838 575.881 516.512 564.638 500.189 542.151C483.865 519.665 475.704 492.425 475.704 460.431C475.704 428.221 483.597 401.036 499.383 378.876C515.169 356.717 537.437 345.648 566.187 345.67C596.674 345.67 619.645 357.345 635.099 380.694C650.553 404.044 658.283 431.068 658.289 461.767C658.289 492.245 650.291 518.888 634.294 541.695C618.297 564.502 595.922 575.897 567.167 575.881ZM567.997 550.586C586.634 550.586 600.563 542.464 609.784 526.221C619.006 509.977 623.617 489.5 623.617 464.789C623.617 437.283 618.898 414.761 609.461 397.223C600.023 379.684 585.549 370.912 566.037 370.907C528.952 370.907 510.409 400.361 510.409 459.269C510.409 520.152 529.6 550.591 567.98 550.586H567.997ZM577.329 792.817H536.355L804.599 350.178H844.801L577.329 792.817ZM814.637 797.358C785.882 797.358 763.465 786.013 747.385 763.322C731.306 740.631 723.233 713.388 723.166 681.593C723.166 649.599 731.004 622.522 746.679 600.362C762.355 578.202 784.678 567.134 813.649 567.156C843.921 567.156 866.731 578.831 882.08 602.18C897.429 625.53 905.106 652.551 905.112 683.245C905.112 713.524 897.166 740.116 881.275 763.023C865.383 785.93 843.165 797.375 814.621 797.358H814.637ZM815.119 771.416C833.667 771.416 847.521 763.433 856.682 747.466C865.843 731.499 870.423 711.105 870.423 686.283C870.423 659.718 865.787 637.44 856.516 619.447C847.245 601.455 832.801 592.445 813.184 592.417C775.883 592.417 757.232 621.871 757.232 680.779C757.221 741.209 776.511 771.421 815.102 771.416H815.119Z" fill="#565378"/>
<path opacity="0.15" d="M567.167 575.881C538.838 575.881 516.512 564.638 500.189 542.151C483.865 519.665 475.704 492.425 475.704 460.431C475.704 428.221 483.597 401.036 499.383 378.876C515.169 356.717 537.437 345.648 566.187 345.67C596.674 345.67 619.645 357.345 635.099 380.694C650.553 404.044 658.283 431.068 658.289 461.767C658.289 492.245 650.291 518.888 634.294 541.695C618.297 564.502 595.922 575.897 567.167 575.881ZM567.997 550.586C586.634 550.586 600.563 542.464 609.784 526.221C619.006 509.977 623.617 489.5 623.617 464.789C623.617 437.283 618.898 414.761 609.461 397.223C600.023 379.684 585.549 370.912 566.037 370.907C528.952 370.907 510.409 400.361 510.409 459.269C510.409 520.152 529.6 550.591 567.98 550.586H567.997ZM577.329 792.817H536.355L804.599 350.178H844.801L577.329 792.817ZM814.637 797.358C785.882 797.358 763.465 786.013 747.385 763.322C731.306 740.631 723.233 713.388 723.166 681.593C723.166 649.599 731.004 622.522 746.679 600.362C762.355 578.202 784.678 567.134 813.649 567.156C843.921 567.156 866.731 578.831 882.08 602.18C897.429 625.53 905.106 652.551 905.112 683.245C905.112 713.524 897.166 740.116 881.275 763.023C865.383 785.93 843.165 797.375 814.621 797.358H814.637ZM815.119 771.416C833.667 771.416 847.521 763.433 856.682 747.466C865.843 731.499 870.423 711.105 870.423 686.283C870.423 659.718 865.787 637.44 856.516 619.447C847.245 601.455 832.801 592.445 813.184 592.417C775.883 592.417 757.232 621.871 757.232 680.779C757.221 741.209 776.511 771.421 815.102 771.416H815.119Z" fill="black"/>
<path d="M541.428 575.881C513.099 575.881 490.773 564.638 474.45 542.151C458.127 519.665 449.966 492.425 449.966 460.431C449.966 428.221 457.859 401.036 473.645 378.876C489.431 356.717 511.699 345.648 540.449 345.67C570.936 345.67 593.907 357.345 609.361 380.694C624.815 404.044 632.545 431.068 632.551 461.767C632.551 492.245 624.552 518.888 608.556 541.695C592.559 564.502 570.183 575.897 541.428 575.881ZM542.259 550.586C560.895 550.586 574.825 542.464 584.046 526.221C593.268 509.977 597.878 489.5 597.878 464.789C597.878 437.283 593.16 414.761 583.722 397.223C574.285 379.684 559.81 370.912 540.299 370.907C503.214 370.907 484.671 400.361 484.671 459.269C484.671 520.152 503.861 550.591 542.242 550.586H542.259ZM551.591 792.817H510.617L778.861 350.178H819.063L551.591 792.817ZM788.899 797.358C760.144 797.358 737.726 786.013 721.647 763.322C705.567 740.631 697.494 713.388 697.428 681.593C697.428 649.599 705.266 622.522 720.941 600.362C736.617 578.202 758.94 567.134 787.911 567.156C818.183 567.156 840.993 578.831 856.342 602.18C871.691 625.53 879.368 652.551 879.374 683.245C879.374 713.524 871.428 740.116 855.537 763.023C839.645 785.93 817.427 797.375 788.882 797.358H788.899ZM789.38 771.416C807.929 771.416 821.783 763.433 830.944 747.466C840.105 731.499 844.685 711.105 844.685 686.283C844.685 659.718 840.049 637.44 830.778 619.447C821.506 601.455 807.057 592.445 787.429 592.417C750.128 592.417 731.477 621.871 731.477 680.779C731.477 741.209 750.773 771.421 789.364 771.416H789.38Z" fill="#565378"/>
<path d="M631.064 803.925C634.485 797.582 630.599 789.812 626.133 784.15C621.666 778.489 616.219 772.611 616.335 765.397C616.501 755.045 627.494 748.927 636.262 743.431C642.783 739.358 648.797 734.526 654.179 729.036C656.433 726.922 658.296 724.426 659.684 721.665C661.502 717.613 661.444 713.006 661.344 708.573C660.962 693.785 660.232 679.019 659.152 664.276" stroke="#565378" stroke-width="4" stroke-miterlimit="10"/>
<path d="M675.857 663.462C675.732 660.757 674.929 658.127 673.52 655.815C672.111 653.502 670.142 651.581 667.795 650.23L664.175 657.385L664.283 648.719C662.557 648.214 660.758 647.998 658.961 648.079C655.769 648.229 652.693 649.322 650.122 651.219C647.552 653.117 645.601 655.734 644.518 658.739C643.434 661.745 643.267 665.005 644.036 668.106C644.805 671.207 646.477 674.01 648.84 676.161C651.203 678.312 654.15 679.715 657.31 680.191C660.47 680.667 663.7 680.196 666.592 678.836C669.484 677.477 671.907 675.291 673.557 672.554C675.206 669.818 676.007 666.654 675.857 663.462V663.462Z" fill="#D58888"/>
<path d="M647.047 772.827C645.352 776.121 642.575 778.731 639.184 780.221C635.792 781.711 631.991 781.99 628.418 781.01C624.845 780.031 621.718 777.853 619.56 774.841C617.403 771.83 616.347 768.169 616.568 764.471C616.79 760.774 618.277 757.265 620.779 754.533C623.281 751.802 626.646 750.013 630.31 749.468C633.975 748.922 637.715 749.653 640.904 751.538C644.094 753.422 646.538 756.346 647.827 759.819L637.731 768.029L648.857 765.439C648.852 768.011 648.232 770.544 647.047 772.827V772.827Z" fill="#D58888"/>
<path d="M639.068 741.439C636.948 741.538 634.83 741.219 632.834 740.5C630.837 739.781 629.002 738.675 627.433 737.247C625.864 735.818 624.592 734.095 623.689 732.175C622.787 730.255 622.271 728.175 622.172 726.056C622.046 723.526 622.524 721.002 623.567 718.693C624.532 716.535 625.959 714.614 627.746 713.067C629.533 711.519 631.638 710.382 633.912 709.735L633.821 716.377L637.482 709.138C641.763 708.937 645.948 710.445 649.117 713.33C652.285 716.215 654.178 720.24 654.378 724.52C654.579 728.8 653.07 732.985 650.185 736.153C647.3 739.321 643.274 741.214 638.993 741.414L639.068 741.439Z" fill="#D58888"/>
<path d="M678.29 715.347C676.145 715.49 673.994 715.203 671.961 714.504C669.928 713.805 668.056 712.707 666.452 711.276C664.849 709.845 663.547 708.108 662.623 706.168C661.699 704.227 661.172 702.122 661.071 699.975C660.971 697.828 661.299 695.683 662.038 693.665C662.777 691.646 663.911 689.796 665.373 688.221C666.836 686.646 668.598 685.379 670.556 684.493C672.515 683.607 674.63 683.121 676.779 683.062C679.798 682.915 682.798 683.626 685.43 685.113L682.574 692.933L688.453 687.296C691.607 690.171 693.492 694.181 693.692 698.445C693.765 699.941 693.625 701.439 693.276 702.895C692.473 706.318 690.575 709.385 687.871 711.632C685.166 713.88 681.803 715.184 678.29 715.347V715.347Z" fill="#D58888"/>
<path opacity="0.1" d="M673.682 667.771C669.954 668.178 666.334 669.34 662.59 669.572C658.845 669.805 654.735 668.908 652.369 665.994C651.09 664.434 650.46 662.449 649.38 660.739C648.361 659.147 646.963 657.833 645.312 656.912C644.275 658.96 643.686 661.205 643.585 663.498C643.483 665.791 643.872 668.08 644.725 670.211C645.577 672.342 646.874 674.267 648.529 675.858C650.184 677.448 652.159 678.668 654.323 679.436C656.486 680.203 658.788 680.501 661.076 680.309C663.363 680.118 665.584 679.441 667.589 678.324C669.595 677.206 671.339 675.675 672.706 673.831C674.073 671.987 675.031 669.873 675.517 667.63C674.903 667.663 674.297 667.704 673.682 667.771Z" fill="black"/>
<path opacity="0.1" d="M678.29 715.347C675.506 715.474 672.736 714.879 670.249 713.621C667.763 712.362 665.643 710.482 664.097 708.164C662.551 705.845 661.63 703.166 661.424 700.387C661.218 697.608 661.734 694.823 662.922 692.302C664.202 693.169 665.304 694.274 666.168 695.556C667.322 697.291 668.02 699.3 669.373 700.894C671.864 703.858 676.189 704.821 680.083 704.646C683.977 704.472 687.747 703.36 691.633 702.986C692.172 702.936 692.72 702.903 693.293 702.886C692.49 706.313 690.591 709.385 687.883 711.634C685.175 713.883 681.807 715.187 678.29 715.347V715.347Z" fill="black"/>
<path opacity="0.1" d="M639.068 741.439C636.948 741.538 634.83 741.219 632.834 740.5C630.837 739.781 629.002 738.675 627.433 737.247C625.864 735.818 624.592 734.095 623.689 732.175C622.787 730.255 622.271 728.175 622.172 726.056C622.046 723.526 622.524 721.002 623.567 718.693C624.899 719.58 626.056 720.706 626.979 722.013C628.233 723.781 629.022 725.824 630.491 727.459C633.215 730.489 637.798 731.56 641.924 731.46C646.051 731.361 649.779 730.398 653.756 730.091C652.77 733.262 650.831 736.052 648.203 738.083C645.575 740.113 642.386 741.285 639.068 741.439V741.439Z" fill="black"/>
<path opacity="0.1" d="M647.047 772.827C645.167 776.521 641.938 779.352 638.029 780.733C634.121 782.114 629.83 781.94 626.046 780.246C622.262 778.553 619.274 775.47 617.7 771.635C616.126 767.8 616.086 763.507 617.589 759.644C618.919 760.519 620.114 761.585 621.134 762.807C622.67 764.683 623.683 766.808 625.46 768.552C628.781 771.789 634.095 773.126 638.844 773.25C641.584 773.273 644.323 773.131 647.047 772.827V772.827Z" fill="black"/>
<path d="M880.976 803.095C884.397 796.752 880.511 788.982 876.044 783.32C871.577 777.659 866.131 771.781 866.247 764.567C866.413 754.215 877.406 748.097 886.173 742.601C892.694 738.528 898.709 733.696 904.091 728.206C906.344 726.091 908.208 723.596 909.595 720.834C911.414 716.783 911.356 712.176 911.256 707.743C910.874 692.955 910.143 678.189 909.064 663.446" stroke="#565378" stroke-width="4" stroke-miterlimit="10"/>
<path d="M925.769 662.632C925.644 659.927 924.84 657.297 923.431 654.985C922.022 652.672 920.054 650.751 917.707 649.399L914.087 656.555L914.195 647.889C912.468 647.384 910.67 647.168 908.873 647.249C905.681 647.399 902.605 648.492 900.034 650.389C897.463 652.287 895.513 654.904 894.429 657.909C893.346 660.915 893.178 664.175 893.948 667.276C894.717 670.377 896.389 673.18 898.751 675.331C901.114 677.482 904.062 678.885 907.222 679.361C910.381 679.837 913.611 679.366 916.503 678.006C919.395 676.647 921.819 674.461 923.468 671.724C925.118 668.988 925.918 665.824 925.769 662.632V662.632Z" fill="#D58888"/>
<path d="M896.959 771.997C895.263 775.29 892.487 777.901 889.095 779.391C885.703 780.881 881.902 781.159 878.33 780.18C874.757 779.2 871.63 777.022 869.472 774.011C867.315 771 866.258 767.339 866.48 763.641C866.702 759.944 868.189 756.435 870.691 753.703C873.193 750.971 876.558 749.183 880.222 748.637C883.886 748.092 887.627 748.823 890.816 750.707C894.005 752.592 896.45 755.516 897.739 758.988L887.643 767.199L898.769 764.608C898.764 767.18 898.143 769.714 896.959 771.997V771.997Z" fill="#D58888"/>
<path d="M888.98 740.609C886.86 740.708 884.742 740.389 882.745 739.67C880.749 738.95 878.914 737.845 877.345 736.416C875.776 734.988 874.504 733.265 873.601 731.344C872.698 729.424 872.183 727.345 872.084 725.226C871.958 722.696 872.436 720.172 873.479 717.862C874.444 715.704 875.87 713.784 877.657 712.236C879.445 710.689 881.55 709.552 883.824 708.905L883.732 715.546L887.394 708.307H887.435C889.555 708.208 891.673 708.527 893.67 709.247C895.666 709.966 897.501 711.072 899.07 712.5C900.639 713.928 901.911 715.652 902.814 717.572C903.716 719.492 904.232 721.571 904.331 723.69C904.431 725.809 904.111 727.928 903.392 729.924C902.672 731.919 901.567 733.754 900.138 735.323C898.71 736.892 896.986 738.164 895.066 739.066C893.145 739.969 891.066 740.485 888.946 740.584L888.98 740.609Z" fill="#D58888"/>
<path d="M928.202 714.517C926.057 714.659 923.905 714.373 921.873 713.674C919.84 712.975 917.967 711.877 916.364 710.446C914.761 709.014 913.459 707.278 912.535 705.337C911.611 703.397 911.083 701.292 910.983 699.145C910.882 696.998 911.211 694.853 911.95 692.834C912.689 690.816 913.822 688.966 915.285 687.391C916.748 685.816 918.51 684.548 920.468 683.663C922.427 682.777 924.542 682.291 926.691 682.232C929.71 682.085 932.71 682.796 935.342 684.283L932.486 692.103L938.364 686.466C941.519 689.341 943.404 693.351 943.603 697.615C943.677 699.11 943.537 700.609 943.188 702.065C942.385 705.487 940.487 708.555 937.782 710.802C935.078 713.049 931.714 714.353 928.202 714.517V714.517Z" fill="#D58888"/>
<path opacity="0.1" d="M923.594 666.941C919.866 667.347 916.246 668.51 912.501 668.742C908.757 668.974 904.647 668.078 902.281 665.164C901.002 663.603 900.371 661.619 899.292 659.909C898.272 658.317 896.875 657.002 895.223 656.082C894.186 658.13 893.597 660.375 893.496 662.668C893.395 664.961 893.784 667.249 894.636 669.381C895.489 671.512 896.786 673.437 898.441 675.027C900.096 676.618 902.071 677.838 904.234 678.605C906.398 679.373 908.7 679.671 910.987 679.479C913.275 679.287 915.495 678.61 917.501 677.493C919.506 676.376 921.25 674.845 922.618 673.001C923.985 671.157 924.943 669.043 925.429 666.8C924.814 666.833 924.208 666.874 923.594 666.941Z" fill="black"/>
<path opacity="0.1" d="M928.202 714.517C925.417 714.644 922.648 714.049 920.161 712.79C917.674 711.532 915.555 709.652 914.009 707.334C912.463 705.015 911.542 702.336 911.336 699.557C911.13 696.778 911.646 693.993 912.833 691.472C914.113 692.339 915.215 693.444 916.08 694.726C917.234 696.461 917.931 698.47 919.285 700.064C921.775 703.027 926.101 703.99 929.995 703.816C933.889 703.642 937.659 702.529 941.544 702.156C942.084 702.106 942.632 702.073 943.205 702.056C942.402 705.483 940.502 708.555 937.794 710.804C935.086 713.053 931.718 714.356 928.202 714.517V714.517Z" fill="black"/>
<path opacity="0.1" d="M888.98 740.609C886.86 740.708 884.742 740.389 882.745 739.67C880.749 738.95 878.914 737.845 877.345 736.416C875.776 734.988 874.504 733.265 873.601 731.344C872.698 729.424 872.183 727.345 872.084 725.226C871.958 722.696 872.436 720.172 873.479 717.862C874.811 718.75 875.968 719.876 876.891 721.183C878.145 722.951 878.933 724.993 880.403 726.629C883.126 729.659 887.709 730.73 891.836 730.63C895.838 730.547 899.69 729.568 903.667 729.261C902.681 732.432 900.743 735.222 898.115 737.252C895.487 739.283 892.297 740.455 888.98 740.609V740.609Z" fill="black"/>
<path opacity="0.1" d="M896.959 771.997C895.078 775.691 891.85 778.522 887.941 779.903C884.032 781.284 879.742 781.109 875.958 779.416C872.174 777.723 869.186 774.64 867.611 770.805C866.037 766.97 865.998 762.677 867.501 758.814C868.831 759.689 870.025 760.755 871.046 761.977C872.582 763.853 873.595 765.978 875.371 767.722C878.693 770.959 884.006 772.296 888.755 772.42C891.496 772.443 894.235 772.301 896.959 771.997V771.997Z" fill="black"/>
<path d="M559.188 714.509C559.203 712.496 558.747 710.508 557.856 708.703C556.965 706.898 555.664 705.327 554.057 704.115C553.857 696.503 548.427 690.285 541.445 689.322C540.905 686.735 539.694 684.336 537.934 682.366C536.173 680.396 533.925 678.924 531.415 678.098V678.098C530.804 677.905 530.18 677.757 529.547 677.658H529.364L529.041 677.616H528.767H528.493H528.135H527.92H527.33C520.206 677.616 514.278 683.062 513.058 690.243C508.45 689.181 504.224 690.559 503.468 693.472C503.273 694.245 503.316 695.058 503.593 695.805C504.373 698.063 506.914 700.222 510.359 701.293L510.808 701.425C511.032 701.492 511.256 701.542 511.48 701.591H511.63C510.363 704.292 510.183 707.376 511.127 710.205C512.072 713.035 514.068 715.393 516.703 716.792C516.599 716.848 516.499 716.912 516.404 716.982C515.978 717.373 515.639 717.848 515.407 718.377C514.575 719.838 513.928 721.397 513.481 723.018C513.149 724.404 513.091 725.857 512.651 727.227C511.895 729.717 509.953 731.9 509.728 734.549C509.629 735.727 509.82 737.114 508.981 737.919C508.772 738.099 508.55 738.262 508.317 738.409C507.729 738.811 507.231 739.331 506.856 739.936C506.611 740.437 506.282 740.892 505.884 741.281C505.129 741.854 503.883 741.796 503.51 742.676C503.136 743.556 504.099 744.594 503.875 745.557C503.692 746.337 502.837 746.694 502.214 747.217C501.518 747.972 501.031 748.897 500.803 749.898C499.563 750.137 498.285 750.1 497.061 749.789C495.836 749.477 494.696 748.9 493.721 748.097C494.055 748.952 494.3 749.839 494.451 750.745C493.463 749.691 491.836 749.383 490.632 748.836C489.079 748.124 487.693 747.095 486.564 745.814L488.739 745.515L479.108 730.904L476.268 730.323L478.817 735.213C478.609 735.313 478.426 735.459 478.282 735.64C478.138 735.821 478.037 736.033 477.987 736.259C477.85 736.801 477.816 737.364 477.888 737.919C478.022 739.23 478.241 740.53 478.543 741.812L479.282 745.249C479.345 745.572 479.425 745.89 479.523 746.204C478.56 746.169 477.598 746.278 476.667 746.528C474.758 745.822 472.77 745.351 470.747 745.125C470.302 745.047 469.845 745.069 469.41 745.191C468.917 745.419 468.489 745.767 468.165 746.204C466.504 748.123 465.031 750.197 463.765 752.397C458.592 761.396 451.684 769.249 445.216 777.385C440.749 779.203 436.249 780.929 431.741 782.64L422.052 786.334C420.117 787.073 418.108 787.828 416.049 787.695C415.119 787.637 413.99 787.496 413.467 788.285C413.212 788.676 413.014 789.1 412.877 789.547C412.537 789.547 412.196 789.63 411.881 789.646H411.823C411.208 788.119 410.677 786.483 409.498 785.371C409.261 785.407 409.036 785.502 408.845 785.647C408.654 785.792 408.501 785.982 408.402 786.201C408.17 786.633 408.028 787.106 407.763 787.504C407.24 788.268 406.335 788.642 405.687 789.289C405.039 789.937 404.633 790.949 403.935 791.58C402.959 792.29 401.814 792.734 400.614 792.867C398.817 793.29 397.083 793.949 395.458 794.826C394.859 795.195 394.218 795.49 393.549 795.706C392.812 795.847 392.059 795.873 391.315 795.781L386.184 795.407C385.727 795.348 385.264 795.367 384.814 795.466C384.286 795.659 383.836 796.022 383.536 796.499C383.235 796.975 383.101 797.537 383.154 798.097C383.216 798.653 383.392 799.191 383.67 799.676C383.949 800.162 384.324 800.585 384.773 800.92C385.663 801.573 386.649 802.085 387.695 802.439C392.154 804.166 396.751 805.512 401.436 806.465V807.503C404.684 809.138 408.269 809.991 411.906 809.993C412.174 810.014 412.443 809.966 412.686 809.852C413.022 809.6 413.255 809.234 413.342 808.823C414.431 805.567 415.12 802.191 415.393 798.77C416.034 798.728 416.662 798.568 417.244 798.296C419.013 797.815 420.765 799.027 422.583 799.226C424.825 799.467 426.909 798.164 429.026 797.358C429.333 797.242 429.64 797.142 429.948 797.043C429.344 797.824 428.631 798.515 427.83 799.093C426.95 799.724 425.962 800.189 425.099 800.845C424.381 801.5 423.612 802.097 422.799 802.63C422.226 802.897 421.635 803.124 421.03 803.31C420.154 803.63 419.318 804.051 418.54 804.564C417.842 804.975 417.251 805.544 416.813 806.224C416.592 806.542 416.456 806.911 416.419 807.296C416.381 807.681 416.443 808.069 416.597 808.424C416.752 808.778 416.995 809.087 417.303 809.321C417.611 809.555 417.974 809.707 418.357 809.761C419.051 809.884 419.758 809.903 420.458 809.819C423.231 809.611 425.996 809.354 428.76 809.105C429.931 809.027 431.094 808.86 432.239 808.607C432.845 808.457 433.443 808.258 434.049 808.1C435.083 807.828 436.144 807.669 437.213 807.627C437.523 807.603 437.835 807.634 438.134 807.719C438.782 807.926 439.238 808.549 439.894 808.715C440.32 808.756 440.75 808.697 441.148 808.541C443.172 808.101 445.237 807.881 447.309 807.885C448.214 807.835 449.276 807.661 449.7 806.822C450.215 805.784 449.351 804.622 449.011 803.501C448.837 802.789 448.743 802.06 448.728 801.326C448.57 799.518 448.051 797.759 447.201 796.155C446.749 795.406 446.368 794.617 446.063 793.797C450.031 792.288 453.827 790.362 457.388 788.052C459.431 786.782 461.539 785.412 463.848 784.947C466.538 784.408 469.311 785.122 471.959 785.885C478.268 787.71 484.474 789.875 490.549 792.369C493.455 793.556 496.361 794.818 499.333 795.69C500.202 796.862 501.254 797.888 502.447 798.728C504.44 800.015 506.872 800.388 509.214 800.571C512.377 800.86 515.553 800.979 518.729 800.928C521.153 800.886 523.652 800.72 525.819 799.616C526.348 799.345 526.847 799.016 527.305 798.637C528.966 798.936 530.668 798.047 531.971 796.91C533.697 795.442 534.941 793.49 535.542 791.306C536.305 788.31 535.716 784.815 537.559 782.366C538.049 781.71 538.688 781.179 539.17 780.514C539.763 779.625 540.054 778.568 540 777.501L540.083 777.376C540.5 776.413 540.78 775.396 540.913 774.355C541.132 773.541 541.409 772.745 541.744 771.972C542.68 769.656 543.494 767.292 544.185 764.891C544.665 763.298 545.042 761.676 545.314 760.034C545.513 758.723 545.629 757.403 545.737 756.083C545.87 754.017 546.272 751.977 546.933 750.014C548.572 745.331 549.498 740.428 549.681 735.47C549.681 735.37 549.681 735.279 549.681 735.18C552.091 734.915 554.317 733.761 555.921 731.944C557.526 730.126 558.395 727.775 558.357 725.35C558.36 723.889 558.054 722.444 557.461 721.108C558.606 719.098 559.202 716.822 559.188 714.509V714.509ZM512.236 771.549C512.377 772.055 512.543 772.561 512.709 773.068C511.945 772.312 511.19 771.532 510.418 770.785C510.725 770.876 511.032 770.976 511.331 771.084C511.649 771.21 511.955 771.366 512.244 771.549H512.236ZM508.516 769.058C503.983 765.123 498.736 762.068 494.094 758.266C496.585 759.52 499.076 760.973 501.567 762.367C504.467 764.027 507.401 765.616 510.368 767.132C509.881 767.871 509.262 768.512 508.541 769.025L508.516 769.058ZM510.451 759.146L510.667 758.922C510.667 759.478 510.667 760.001 510.667 760.474C510.26 760.342 509.836 760.209 509.446 760.059C509.805 759.767 510.143 759.451 510.459 759.113L510.451 759.146ZM470.54 769.805C472.406 767.694 474.03 765.38 475.38 762.907C477.173 766.053 480.096 768.319 482.587 770.951C478.585 770.386 474.575 769.947 470.548 769.772L470.54 769.805Z" fill="url(#paint0_linear_3_100)"/>
<path d="M477.016 731.535L479.88 732.116L489.636 746.528L485.327 747.109L477.016 731.535Z" fill="#2F2E41"/>
<path d="M407.646 790.028C408.419 792.582 409.37 795.079 410.494 797.499C413.727 796.823 416.907 795.916 420.009 794.785C419.409 793.85 418.749 792.954 418.033 792.103C417.27 791.256 416.359 790.555 415.343 790.036C414.355 789.605 413.135 789.928 412.08 789.986C410.602 790.042 409.124 790.056 407.646 790.028Z" fill="#FBBEBE"/>
<path d="M415.36 793.88C413.749 793.374 412.761 791.746 412.105 790.177C411.449 788.608 410.918 786.898 409.672 785.744C409.435 785.782 409.211 785.877 409.02 786.022C408.829 786.167 408.676 786.356 408.576 786.575C408.336 786.99 408.194 787.463 407.92 787.861C407.406 788.608 406.492 788.974 405.837 789.613C405.181 790.252 404.774 791.223 404.068 791.863C403.089 792.566 401.945 793.007 400.747 793.141C398.937 793.551 397.189 794.199 395.549 795.067C394.942 795.419 394.296 795.697 393.623 795.897C392.882 796.038 392.123 796.064 391.373 795.972L386.201 795.598C385.741 795.541 385.275 795.564 384.822 795.665C384.295 795.848 383.845 796.203 383.544 796.673C383.243 797.142 383.108 797.7 383.162 798.255C383.23 798.808 383.414 799.341 383.699 799.82C383.985 800.299 384.368 800.713 384.822 801.036C385.722 801.678 386.712 802.182 387.762 802.53C392.268 804.225 396.905 805.549 401.627 806.49V807.511C404.909 809.135 408.518 809.987 412.18 810.002C412.464 810.027 412.75 809.978 413.01 809.86C413.346 809.614 413.582 809.254 413.674 808.848C414.915 805.22 415.639 801.436 415.825 797.607C415.92 796.639 415.847 795.662 415.609 794.718C415.327 793.789 416.29 794.179 415.393 793.814" fill="#2F2E41"/>
<path d="M514.527 774.388C499.192 775.318 484.048 770.818 468.688 770.337C466.782 770.221 464.868 770.343 462.992 770.702C461.037 771.226 459.144 771.961 457.347 772.894C449.119 776.721 440.6 779.892 432.09 783.063L422.326 786.699C420.366 787.421 418.349 788.16 416.265 788.036C415.335 787.977 414.197 787.836 413.666 788.617C412.08 790.966 412.836 794.428 413.882 797.068C414.222 797.898 414.795 798.852 415.708 798.952C416.355 798.908 416.987 798.748 417.577 798.479C419.353 798.006 421.13 799.201 422.957 799.392C425.223 799.633 427.324 798.346 429.458 797.557C432.995 796.254 436.864 796.296 440.583 795.673C446.827 794.635 452.606 791.738 458.019 788.434C460.078 787.18 462.17 785.836 464.528 785.379C467.243 784.848 470.041 785.545 472.707 786.301C479.06 788.099 485.315 790.23 491.446 792.684C494.637 794.071 497.908 795.263 501.243 796.254C508.511 798.167 516.199 797.72 523.195 794.976C525.686 794.004 528.31 792.294 528.451 789.646C528.534 788.135 527.363 786.807 526.583 785.495C526.076 784.665 525.578 783.835 525.03 783.046C522.39 779.194 519.185 774.106 514.527 774.388Z" fill="#2F2E41"/>
<path opacity="0.1" d="M514.527 774.388C499.192 775.318 484.048 770.818 468.688 770.337C466.782 770.221 464.868 770.343 462.992 770.702C461.037 771.226 459.144 771.961 457.347 772.894C449.119 776.721 440.6 779.892 432.09 783.063L422.326 786.699C420.366 787.421 418.349 788.16 416.265 788.036C415.335 787.977 414.197 787.836 413.666 788.617C412.08 790.966 412.836 794.428 413.882 797.068C414.222 797.898 414.795 798.852 415.708 798.952C416.355 798.908 416.987 798.748 417.577 798.479C419.353 798.006 421.13 799.201 422.957 799.392C425.223 799.633 427.324 798.346 429.458 797.557C432.995 796.254 436.864 796.296 440.583 795.673C446.827 794.635 452.606 791.738 458.019 788.434C460.078 787.18 462.17 785.836 464.528 785.379C467.243 784.848 470.041 785.545 472.707 786.301C479.06 788.099 485.315 790.23 491.446 792.684C494.637 794.071 497.908 795.263 501.243 796.254C508.511 798.167 516.199 797.72 523.195 794.976C525.686 794.004 528.31 792.294 528.451 789.646C528.534 788.135 527.363 786.807 526.583 785.495C526.076 784.665 525.578 783.835 525.03 783.046C522.39 779.194 519.185 774.106 514.527 774.388Z" fill="black"/>
<path d="M437.08 790.775C439.482 791.589 441.901 792.341 444.336 793.033C445.706 790.784 448.263 789.223 448.845 786.658C448.878 786.547 448.878 786.428 448.845 786.317C448.781 786.208 448.685 786.121 448.571 786.068C446.82 785.103 444.878 784.536 442.883 784.408C441.306 784.308 440.592 785.952 439.878 787.106C439.629 787.571 437.719 790.991 437.08 790.775Z" fill="#FBBEBE"/>
<path d="M440.459 789.131C439.742 789.012 439.058 788.744 438.45 788.346C437.843 787.947 437.325 787.425 436.93 786.815C436.59 786.226 436.233 785.429 435.552 785.47C434.871 785.512 434.639 786.259 434.498 786.882C434.038 789.207 433.374 791.488 432.513 793.697C431.645 795.913 430.176 797.842 428.271 799.268C427.382 799.882 426.394 800.347 425.522 800.994C424.796 801.642 424.018 802.231 423.198 802.754C422.619 803.019 422.023 803.24 421.412 803.418C420.518 803.731 419.663 804.146 418.864 804.655C418.163 805.065 417.569 805.634 417.128 806.316C416.916 806.662 416.791 807.054 416.765 807.459C416.739 807.864 416.812 808.27 416.979 808.64C417.158 808.941 417.398 809.201 417.684 809.402C417.97 809.604 418.296 809.743 418.639 809.811C419.339 809.927 420.052 809.944 420.757 809.86C423.555 809.653 426.344 809.404 429.134 809.155C430.315 809.082 431.489 808.921 432.646 808.673C433.26 808.524 433.858 808.325 434.464 808.167C435.511 807.9 436.582 807.744 437.661 807.702C437.974 807.678 438.288 807.709 438.591 807.793C439.238 808.001 439.695 808.623 440.359 808.773C440.787 808.817 441.22 808.76 441.621 808.607C443.663 808.175 445.745 807.958 447.832 807.959C448.745 807.909 449.824 807.735 450.24 806.913C450.763 805.892 449.899 804.747 449.55 803.651C449.378 802.949 449.281 802.231 449.26 801.509C449.103 799.725 448.58 797.993 447.724 796.42C447.01 795.108 446.063 793.664 446.537 792.269C446.791 791.834 446.952 791.351 447.01 790.85C446.894 788.6 441.721 789.43 440.459 789.131Z" fill="#2F2E41"/>
<path d="M491.537 749.799C488.821 748.6 486.644 746.438 485.426 743.73C485.177 743.149 484.961 742.543 484.721 741.954C483.913 740.005 482.662 738.271 481.067 736.89C480.897 736.702 480.687 736.553 480.454 736.454C480.22 736.356 479.968 736.309 479.714 736.317C479.469 736.39 479.247 736.527 479.072 736.713C478.897 736.9 478.775 737.13 478.718 737.379C478.576 737.921 478.539 738.484 478.61 739.04C478.752 740.328 478.974 741.606 479.274 742.867L480.021 746.254C480.116 746.774 480.272 747.281 480.486 747.765C480.806 748.333 481.228 748.837 481.732 749.251C482.413 749.882 483.102 750.488 483.799 751.077C484.183 751.425 484.604 751.731 485.053 751.99C485.789 752.339 486.577 752.569 487.386 752.671C490.433 753.235 493.53 754.049 496.095 755.992C496.095 755.992 496.095 753.725 496.037 753.501C496.006 752.844 495.781 752.212 495.39 751.683C494.427 750.645 492.766 750.338 491.537 749.799Z" fill="#FBBEBE"/>
<path opacity="0.1" d="M491.537 749.799C488.821 748.6 486.644 746.438 485.426 743.73C485.177 743.149 484.961 742.543 484.721 741.954C483.913 740.005 482.662 738.271 481.067 736.89C480.897 736.702 480.687 736.553 480.454 736.454C480.22 736.356 479.968 736.309 479.714 736.317C479.469 736.39 479.247 736.527 479.072 736.713C478.897 736.9 478.775 737.13 478.718 737.379C478.576 737.921 478.539 738.484 478.61 739.04C478.752 740.328 478.974 741.606 479.274 742.867L480.021 746.254C480.116 746.774 480.272 747.281 480.486 747.765C480.806 748.333 481.228 748.837 481.732 749.251C482.413 749.882 483.102 750.488 483.799 751.077C484.183 751.425 484.604 751.731 485.053 751.99C485.789 752.339 486.577 752.569 487.386 752.671C490.433 753.235 493.53 754.049 496.095 755.992C496.095 755.992 496.095 753.725 496.037 753.501C496.006 752.844 495.781 752.212 495.39 751.683C494.427 750.645 492.766 750.338 491.537 749.799Z" fill="black"/>
<path d="M522.755 723.898C524.814 723.898 526.483 722.218 526.483 720.145C526.483 718.073 524.814 716.393 522.755 716.393C520.697 716.393 519.027 718.073 519.027 720.145C519.027 722.218 520.697 723.898 522.755 723.898Z" fill="#2F2E41"/>
<path d="M520.447 717.879C519.446 717.651 518.396 717.802 517.5 718.302C517.069 718.683 516.726 719.154 516.495 719.68C515.656 721.114 515.004 722.648 514.552 724.246C514.22 725.616 514.162 727.044 513.722 728.397C512.958 730.888 510.999 733.004 510.774 735.603C510.675 736.765 510.866 738.135 510.019 738.923C509.809 739.1 509.583 739.258 509.346 739.397C508.757 739.792 508.256 740.307 507.877 740.908C507.623 741.447 507.271 741.934 506.839 742.344C506.075 742.908 504.821 742.85 504.448 743.722C504.074 744.593 505.037 745.606 504.813 746.553C504.63 747.325 503.767 747.682 503.153 748.213C502.453 748.954 501.963 749.868 501.733 750.861C500.486 751.096 499.202 751.058 497.971 750.75C496.74 750.442 495.59 749.871 494.601 749.076C495.639 751.641 495.664 754.472 495.705 757.237C495.825 758.121 495.589 759.017 495.049 759.727C498.022 759.794 500.911 760.557 503.809 761.246C505.048 761.661 506.389 761.661 507.628 761.246C508.29 760.89 508.884 760.417 509.38 759.852C510.957 758.25 512.609 756.531 512.991 754.298C513.092 753.042 513.115 751.78 513.058 750.521C513.21 748.966 513.53 747.432 514.013 745.947C514.846 742.862 515.402 739.708 515.673 736.524C515.847 734.557 517.541 732.98 518.438 731.22C520.098 727.899 521.842 724.454 521.975 720.735C522.091 719.523 521.676 718.037 520.447 717.879Z" fill="#2F2E41"/>
<path opacity="0.1" d="M520.447 717.879C519.446 717.651 518.396 717.802 517.5 718.302C517.069 718.683 516.726 719.154 516.495 719.68C515.656 721.114 515.004 722.648 514.552 724.246C514.22 725.616 514.162 727.044 513.722 728.397C512.958 730.888 510.999 733.004 510.774 735.603C510.675 736.765 510.866 738.135 510.019 738.923C509.809 739.1 509.583 739.258 509.346 739.397C508.757 739.792 508.256 740.307 507.877 740.908C507.623 741.447 507.271 741.934 506.839 742.344C506.075 742.908 504.821 742.85 504.448 743.722C504.074 744.593 505.037 745.606 504.813 746.553C504.63 747.325 503.767 747.682 503.153 748.213C502.453 748.954 501.963 749.868 501.733 750.861C500.486 751.096 499.202 751.058 497.971 750.75C496.74 750.442 495.59 749.871 494.601 749.076C495.639 751.641 495.664 754.472 495.705 757.237C495.825 758.121 495.589 759.017 495.049 759.727C498.022 759.794 500.911 760.557 503.809 761.246C505.048 761.661 506.389 761.661 507.628 761.246C508.29 760.89 508.884 760.417 509.38 759.852C510.957 758.25 512.609 756.531 512.991 754.298C513.092 753.042 513.115 751.78 513.058 750.521C513.21 748.966 513.53 747.432 514.013 745.947C514.846 742.862 515.402 739.708 515.673 736.524C515.847 734.557 517.541 732.98 518.438 731.22C520.098 727.899 521.842 724.454 521.975 720.735C522.091 719.523 521.676 718.037 520.447 717.879Z" fill="black"/>
<path d="M516.96 777.617C513.764 776.098 511.431 773.267 508.848 770.843C503.917 766.211 497.889 762.94 492.708 758.598C489.279 755.726 486.207 752.38 482.429 749.973C479.107 747.853 475.338 746.532 471.42 746.113C470.972 746.035 470.513 746.057 470.075 746.179C469.58 746.401 469.149 746.743 468.821 747.175C467.147 749.061 465.66 751.105 464.379 753.277C457.812 764.418 448.488 773.79 440.758 784.159C440.51 784.403 440.363 784.731 440.346 785.079C440.329 785.427 440.443 785.768 440.667 786.035L442.236 789.115C443.116 790.833 444.527 792.842 446.387 792.502C447.24 792.256 448.004 791.769 448.587 791.099L455.645 784.35L463.042 777.277C467.376 773.126 471.785 768.892 474.616 763.596C476.825 767.423 480.744 769.93 483.434 773.441C484.455 774.77 485.285 776.239 486.199 777.65C487.668 779.917 489.329 782.042 490.989 784.159L499.483 794.992C500.555 796.535 501.883 797.883 503.41 798.977C505.419 800.247 507.869 800.588 510.235 800.795C513.423 801.086 516.624 801.202 519.825 801.144C522.266 801.102 524.806 800.945 526.965 799.857C529.124 798.77 530.959 796.536 530.842 794.104C530.71 792.829 530.293 791.601 529.622 790.509C526.625 784.947 522.656 780.299 516.96 777.617Z" fill="#2F2E41"/>
<path d="M525.047 725.624C526.629 725.624 527.911 724.335 527.911 722.744C527.911 721.153 526.629 719.863 525.047 719.863C523.465 719.863 522.182 721.153 522.182 722.744C522.182 724.335 523.465 725.624 525.047 725.624Z" fill="#E8E8F0"/>
<path d="M524.416 720.577C525.063 721.865 525.177 723.357 524.731 724.728C524.289 726.077 523.669 727.361 522.888 728.547C522.216 729.771 521.412 730.918 520.489 731.967C524.914 732.183 529.207 730.448 533.109 728.339C536.256 726.679 539.394 724.562 541.071 721.399C540.572 721.518 540.053 721.531 539.549 721.438C539.044 721.345 538.564 721.148 538.14 720.859C537.296 720.271 536.538 719.567 535.89 718.767L533.673 716.277C533.15 715.73 532.69 715.126 532.304 714.475C531.818 713.592 531.613 712.581 531.714 711.578C530.831 712.502 529.845 713.321 528.775 714.019C527.189 715.056 525.454 715.804 523.851 716.825C523.287 717.19 522.033 717.779 522.357 718.485C522.681 719.191 523.968 719.78 524.416 720.577Z" fill="#FBBEBE"/>
<path opacity="0.1" d="M524.416 720.577C525.063 721.865 525.177 723.357 524.731 724.728C524.289 726.077 523.669 727.361 522.888 728.547C522.216 729.771 521.412 730.918 520.489 731.967C524.914 732.183 529.207 730.448 533.109 728.339C536.256 726.679 539.394 724.562 541.071 721.399C540.572 721.518 540.053 721.531 539.549 721.438C539.044 721.345 538.564 721.148 538.14 720.859C537.296 720.271 536.538 719.567 535.89 718.767L533.673 716.277C533.15 715.73 532.69 715.126 532.304 714.475C531.818 713.592 531.613 712.581 531.714 711.578C530.831 712.502 529.845 713.321 528.775 714.019C527.189 715.056 525.454 715.804 523.851 716.825C523.287 717.19 522.033 717.779 522.357 718.485C522.681 719.191 523.968 719.78 524.416 720.577Z" fill="black"/>
<path d="M524.474 721.009C524.027 721.641 523.786 722.397 523.786 723.171C523.786 723.946 524.027 724.701 524.474 725.334C524.599 725.491 525.072 726.479 525.304 726.488C525.5 726.471 525.682 726.379 525.811 726.23C526.814 725.182 527.751 724.073 528.617 722.91C529.492 721.731 530.757 720.901 532.187 720.569C533.922 720.295 535.591 721.216 537.111 722.096C537.764 722.421 538.332 722.892 538.771 723.474C539.091 724.052 539.281 724.692 539.328 725.35C539.764 729.308 539.93 733.291 539.826 737.271C539.906 740.141 539.717 743.012 539.261 745.847C538.979 747.308 538.555 748.736 538.356 750.214C538.211 751.514 538.152 752.823 538.182 754.132V759.611C538.145 760.615 538.218 761.62 538.398 762.608C538.74 763.787 539.142 764.948 539.602 766.086C540.006 767.441 540.284 768.831 540.432 770.237L541.179 775.907C541.42 777.7 541.594 779.651 540.507 781.087C540.025 781.743 539.377 782.258 538.846 782.905C536.978 785.279 537.601 788.725 536.77 791.672C536.156 793.834 534.9 795.759 533.167 797.192C531.847 798.313 530.136 799.201 528.426 798.852C526.126 798.421 524.74 796.022 524.109 793.755C523.478 791.489 523.278 789.015 521.892 787.114C520.779 785.545 519.061 784.565 517.508 783.445C515.955 782.324 514.428 780.888 514.087 778.995C513.938 778.165 514.029 777.335 513.946 776.505C513.823 775.447 513.417 774.441 512.771 773.594C512.126 772.747 511.264 772.089 510.276 771.69C509.097 771.233 507.636 771.067 506.955 770.029C508.646 768.968 509.878 767.313 510.409 765.389C510.924 763.493 511.203 761.542 511.239 759.578L511.638 752.986C511.812 750.039 511.895 747.117 513.191 744.469C513.772 743.29 514.494 742.178 515.092 741.007C515.893 739.364 516.575 737.667 517.134 735.927C518.073 733.229 519.019 730.522 519.858 727.791C520.193 726.468 520.695 725.193 521.352 723.997C522.124 722.752 523.146 721.258 524.474 721.009Z" fill="#E8E8F0"/>
<path d="M509.836 763.836L511.58 763.895L511.953 761.263C512.003 760.737 512.126 760.22 512.319 759.727C512.608 759.208 512.945 758.716 513.323 758.258C515.042 755.834 514.918 752.613 515.341 749.666C515.906 745.739 517.55 742.053 519.177 738.434L522.564 730.888C522.866 730.267 523.108 729.62 523.287 728.953C523.435 728.218 523.504 727.47 523.494 726.72C523.494 725.558 523.876 721.316 523.901 720.145C523.901 719.714 522.955 719.954 522.755 719.573C522.332 718.742 521.751 721 520.954 721.498C520.202 722.073 519.655 722.873 519.393 723.781C518.662 725.682 518.214 727.683 517.533 729.593C516.936 731.548 515.846 733.317 514.37 734.731C513.68 735.346 512.875 735.827 512.219 736.475C510.11 738.558 509.911 741.846 509.836 744.776C509.786 746.594 509.446 763.836 509.836 763.836Z" fill="#2F2E41"/>
<path d="M534.952 717.862C533.291 718.526 532.328 720.353 531.855 722.129C531.382 723.906 531.183 725.782 530.269 727.359C528.144 731.062 522.722 732.141 521.219 736.142C520.837 737.494 520.633 738.889 520.613 740.293C520.347 743.157 519.401 745.93 519.119 748.794C518.972 751.022 519.025 753.258 519.276 755.477L521.178 778.082C521.546 781.411 521.353 784.779 520.605 788.044C522.555 788.325 524.544 787.997 526.301 787.106C528.086 786.276 529.713 785.18 531.423 784.233C534.371 782.573 537.625 781.452 540.199 779.252C540.666 778.889 541.068 778.448 541.387 777.949C541.8 776.999 542.079 775.996 542.217 774.969C542.435 774.169 542.713 773.387 543.047 772.628C544.001 770.349 544.832 768.021 545.538 765.654C546.021 764.084 546.401 762.484 546.675 760.864C546.883 759.578 546.991 758.274 547.107 756.979C547.24 754.942 547.645 752.932 548.311 751.002C549.958 746.398 550.89 741.568 551.076 736.682C551.133 735.976 551.086 735.265 550.935 734.573C550.648 733.734 550.263 732.932 549.789 732.183C549 730.697 548.527 729.061 547.78 727.559C546.119 724.155 543.138 721.573 540.025 719.406C538.431 718.352 536.679 717.206 534.952 717.862Z" fill="#2F2E41"/>
<path d="M495.315 754.746C493.966 754.041 492.746 753.115 491.703 752.007C491.23 751.451 490.873 750.828 490.358 750.28C489.139 748.98 487.556 748.078 485.817 747.69C484.089 747.309 482.321 747.139 480.553 747.184C479.371 747.102 478.185 747.246 477.057 747.607C476.491 747.792 475.981 748.118 475.574 748.553C475.168 748.989 474.878 749.52 474.733 750.097C474.475 751.509 475.397 752.878 476.501 753.775C477.528 754.614 478.736 755.202 480.03 755.493C481.085 755.676 482.149 755.801 483.218 755.867C489.495 756.523 495.099 759.935 500.595 763.048C505.428 765.776 510.354 768.33 515.374 770.71C515.573 769.208 515.657 767.693 515.623 766.178C515.623 765.049 515.54 763.322 514.469 762.658C513.224 761.877 511.148 761.703 509.77 761.238C506.534 760.183 503.375 758.907 500.313 757.419C498.578 756.581 496.917 755.693 495.315 754.746Z" fill="#FBBEBE"/>
<path d="M522.755 719.29C528.932 719.29 533.939 714.254 533.939 708.042C533.939 701.829 528.932 696.793 522.755 696.793C516.579 696.793 511.572 701.829 511.572 708.042C511.572 714.254 516.579 719.29 522.755 719.29Z" fill="#FBBEBE"/>
<path d="M538.149 730.614C537.258 731.864 536.53 733.223 535.982 734.657C534.595 737.504 532.428 739.945 531.349 742.958C530.203 746.088 530.244 749.815 528.028 752.281C527.582 752.655 527.246 753.142 527.056 753.692C527.043 754.035 527.004 754.376 526.94 754.713C526.624 755.61 525.155 755.651 524.881 756.564C524.806 756.83 524.881 757.121 524.748 757.395C524.524 757.984 523.752 758.067 523.229 758.424C522.141 759.163 522.398 760.873 521.568 761.936C521.231 762.33 520.795 762.628 520.305 762.8C519.815 762.972 519.288 763.012 518.778 762.915C517.761 762.701 516.781 762.334 515.872 761.828C515.553 761.648 515.199 761.538 514.835 761.504C514.401 761.513 513.981 761.655 513.631 761.911C511.563 763.222 510.592 765.829 510.608 768.286C510.754 770.744 511.336 773.155 512.327 775.409C512.444 775.798 512.639 776.16 512.9 776.472C513.581 777.194 514.776 777.078 515.69 776.671C516.545 776.164 517.456 775.758 518.405 775.459C520.132 775.143 521.825 776.339 523.577 776.239C524.859 776.044 526.066 775.511 527.073 774.695C528.851 773.615 530.443 772.256 531.789 770.669C532.553 769.664 533.117 768.519 533.79 767.448C534.649 766.132 535.592 764.873 536.613 763.679L543.064 755.784C543.711 755.036 544.292 754.234 544.799 753.385C545.381 752.237 545.835 751.029 546.152 749.782C546.843 747.702 547.292 745.548 547.489 743.365C547.522 741.557 547.363 739.751 547.016 737.977C546.799 736.213 546.332 734.488 545.629 732.855C544.193 729.95 540.781 727.542 538.149 730.614Z" fill="#2F2E41"/>
<path d="M560.616 715.961C560.625 713.967 560.159 711.999 559.259 710.219C558.358 708.44 557.047 706.9 555.435 705.726C555.386 702.185 554.081 698.777 551.753 696.108C549.425 693.44 546.225 691.685 542.723 691.156C542.046 687.803 540.207 684.795 537.53 682.664C534.853 680.533 531.51 679.416 528.089 679.508C524.668 679.6 521.39 680.897 518.832 683.169C516.273 685.441 514.599 688.543 514.104 691.928C509.454 690.882 505.203 692.244 504.431 695.108C503.601 698.105 506.922 701.608 511.837 702.936C513.377 703.371 514.982 703.532 516.578 703.409C517.721 705.088 519.202 706.508 520.927 707.58C522.651 708.653 524.58 709.353 526.591 709.636C527.182 712.343 528.517 714.833 530.446 716.823C532.375 718.813 534.821 720.226 537.509 720.901C538.253 722.698 539.408 724.296 540.88 725.566C540.88 725.915 540.822 726.272 540.822 726.637C540.769 727.913 540.974 729.187 541.425 730.382C541.877 731.577 542.566 732.668 543.45 733.59C544.334 734.512 545.395 735.245 546.57 735.746C547.745 736.247 549.01 736.506 550.287 736.506C551.565 736.506 552.829 736.247 554.004 735.746C555.179 735.245 556.24 734.512 557.125 733.59C558.009 732.668 558.697 731.577 559.149 730.382C559.601 729.187 559.806 727.913 559.752 726.637C559.753 725.205 559.444 723.789 558.847 722.486C560.014 720.511 560.625 718.256 560.616 715.961V715.961Z" fill="#F86D70"/>
<path opacity="0.1" d="M507.586 695.681C508.358 692.817 512.568 691.455 517.259 692.501C517.805 689.063 519.548 685.928 522.18 683.649C524.813 681.371 528.166 680.096 531.647 680.049C531.971 680.049 532.295 680.049 532.611 680.049C531.265 679.638 529.866 679.431 528.459 679.434C524.978 679.481 521.625 680.757 518.992 683.035C516.359 685.313 514.616 688.448 514.071 691.887C509.421 690.841 505.17 692.202 504.398 695.066C503.568 698.063 506.889 701.566 511.804 702.895C512.718 703.148 513.656 703.309 514.602 703.376C509.936 702.015 506.797 698.611 507.586 695.681Z" fill="black"/>
<path opacity="0.1" d="M543.977 727.218C543.977 726.853 543.977 726.496 544.035 726.139C542.562 724.872 541.408 723.277 540.664 721.482C537.978 720.8 535.534 719.384 533.606 717.394C531.678 715.403 530.341 712.915 529.746 710.208C527.735 709.927 525.805 709.228 524.08 708.155C522.356 707.083 520.875 705.661 519.733 703.982C518.803 704.056 517.868 704.031 516.943 703.907C518.091 705.454 519.535 706.757 521.192 707.741C522.848 708.724 524.683 709.368 526.591 709.636C527.182 712.343 528.516 714.833 530.445 716.823C532.374 718.813 534.821 720.226 537.509 720.901C538.253 722.698 539.407 724.296 540.88 725.566C540.88 725.915 540.822 726.272 540.822 726.637C540.78 729.182 541.746 731.641 543.51 733.476C545.274 735.311 547.692 736.374 550.237 736.433C548.38 735.717 546.785 734.451 545.667 732.804C544.548 731.157 543.959 729.209 543.977 727.218Z" fill="black"/>
<path d="M527.872 712.163C528.632 711.586 528.624 710.299 527.856 709.287C527.088 708.276 525.849 707.924 525.09 708.501C524.33 709.078 524.337 710.365 525.106 711.376C525.874 712.388 527.113 712.74 527.872 712.163Z" fill="#FBBEBE"/>
<path d="M260.539 768.137L271.598 761.637C270.104 759.082 268.193 756.795 265.944 754.871L245.088 761.354L261.427 751.749C257.381 749.534 252.828 748.41 248.216 748.488C243.603 748.567 239.09 749.844 235.122 752.196C231.153 754.547 227.865 757.891 225.582 761.899C223.298 765.906 222.097 770.439 222.098 775.052C222.098 789.721 233.995 790.227 248.666 790.227C263.337 790.227 275.235 789.721 275.235 775.052C275.244 771.334 274.465 767.656 272.952 764.26L260.539 768.137Z" fill="#D58888"/>
<path opacity="0.1" d="M263.354 782.399C262.176 781.219 260.86 780.184 259.435 779.319C257.434 777.982 255.35 776.621 252.984 776.173C250.908 775.774 248.766 776.115 246.649 775.99C242.972 775.766 239.512 774.179 236.943 771.54C235.432 769.98 234.244 768.062 232.426 766.867C230.394 765.659 227.996 765.22 225.668 765.63C224.993 765.724 224.325 765.859 223.667 766.036C222.626 768.928 222.095 771.979 222.098 775.052C222.098 789.721 233.995 790.227 248.666 790.227C255.79 790.227 262.249 790.111 267.024 788.31L266.193 786.824C265.439 785.234 264.485 783.747 263.354 782.399Z" fill="black"/>
</g>
<path d="M461.678 192.524C460.25 193.127 459.106 194.026 458.257 195.231C457.408 196.437 456.977 197.889 456.977 199.6C456.977 201.79 457.9 203.476 459.734 204.669C461.469 205.789 463.29 206.072 465.197 205.506C467.399 204.866 468.888 203.303 469.676 200.818C470.045 199.673 470.229 198.394 470.229 196.966V190.789C468.679 190.839 467.227 190.986 465.861 191.245C464.496 191.503 463.105 191.934 461.678 192.524V192.524ZM465 142.875C434.558 142.875 409.875 167.558 409.875 198C409.875 228.442 434.558 253.125 465 253.125C495.442 253.125 520.125 228.442 520.125 198C520.125 167.558 495.442 142.875 465 142.875ZM469.405 175.199C468.519 173.858 466.932 173.181 464.643 173.181C464.483 173.181 464.274 173.194 463.991 173.218C463.72 173.243 463.179 173.403 462.404 173.674C461.625 173.952 460.885 174.328 460.201 174.793C459.524 175.261 458.786 176.024 457.986 177.057C457.199 178.103 456.571 179.321 456.104 180.724L444.537 179.691C444.537 178.165 444.833 176.651 445.399 175.15C445.977 173.649 446.851 172.209 448.032 170.844C449.213 169.465 450.628 168.26 452.277 167.226C453.926 166.18 455.919 165.356 458.232 164.728C460.558 164.101 463.044 163.793 465.726 163.793C468.347 163.793 470.722 164.113 472.838 164.74C474.954 165.38 476.665 166.155 477.932 167.091C479.153 167.972 480.229 169.039 481.119 170.253C481.968 171.434 482.559 172.529 482.891 173.538C483.223 174.547 483.383 175.47 483.383 176.344V198.8C483.383 199.587 483.555 200.399 483.912 201.236C484.269 202.073 484.688 202.811 485.167 203.451C485.647 204.091 486.139 204.669 486.644 205.211C487.148 205.74 487.579 206.158 487.948 206.429L488.453 206.847L479.532 215.387C478.486 214.439 477.452 213.492 476.431 212.507C475.41 211.523 474.647 210.785 474.155 210.28L473.404 209.517C473.109 209.234 472.789 208.816 472.42 208.262C471.423 209.763 470.143 211.068 468.593 212.175C467.03 213.282 465.357 214.095 463.585 214.599C461.801 215.104 459.967 215.399 458.085 215.473C456.202 215.546 454.393 215.288 452.683 214.673C450.973 214.058 449.422 213.233 448.056 212.175C446.691 211.117 445.608 209.689 444.796 207.868C443.984 206.047 443.578 203.992 443.578 201.667C443.578 199.526 443.947 197.569 444.673 195.797C445.411 194.013 446.346 192.537 447.503 191.355C448.659 190.174 450.05 189.116 451.686 188.193C453.323 187.27 454.935 186.544 456.51 186.015C458.085 185.498 459.783 185.055 461.616 184.699C463.45 184.342 465.012 184.108 466.317 183.997C467.621 183.887 468.925 183.8 470.229 183.751V178.903C470.229 177.242 469.946 176.012 469.405 175.199V175.199ZM491.615 221.908C491.271 222.314 490.692 222.868 489.88 223.569C489.068 224.271 487.813 225.132 486.127 226.165C484.441 227.199 482.583 228.134 480.59 228.983C478.584 229.832 476.123 230.571 473.195 231.198C470.279 231.826 467.264 232.133 464.176 232.133C461.05 232.133 457.937 231.739 454.812 230.952C451.686 230.164 448.955 229.192 446.592 228.036C444.242 226.879 441.966 225.55 439.812 224.074C437.647 222.585 435.912 221.256 434.595 220.075C433.291 218.893 432.183 217.774 431.297 216.74C431.088 216.506 430.953 216.297 430.904 216.113C430.854 215.928 430.867 215.768 430.941 215.657C431.014 215.546 431.125 215.46 431.261 215.387C431.408 215.321 431.569 215.296 431.729 215.313C431.889 215.331 432.041 215.39 432.171 215.485C437.204 218.463 441.141 220.567 443.971 221.81C454.172 226.288 464.643 227.433 475.385 225.243C480.369 224.221 485.487 222.511 490.754 220.099C491.147 219.952 491.492 219.915 491.775 219.988C492.058 220.062 492.206 220.284 492.206 220.653C492.206 220.997 492.009 221.428 491.615 221.908V221.908ZM498.986 218.34C498.764 219.705 498.383 220.997 497.866 222.253C496.98 224.357 495.86 225.944 494.531 226.978C494.088 227.334 493.744 227.445 493.51 227.322C493.276 227.199 493.276 226.891 493.51 226.412C494.064 225.267 494.642 223.729 495.257 221.773C495.872 219.829 495.959 218.573 495.516 218.02C495.38 217.835 495.183 217.7 494.9 217.577C494.63 217.466 494.273 217.392 493.842 217.343C493.412 217.294 493.018 217.269 492.686 217.245C492.341 217.22 491.886 217.22 491.307 217.245C490.729 217.269 490.323 217.294 490.065 217.318C489.364 217.387 488.662 217.448 487.961 217.503C487.801 217.528 487.628 217.552 487.456 217.564C487.271 217.577 487.124 217.589 487.025 217.601L486.693 217.638C486.57 217.651 486.484 217.663 486.422 217.663H486.029L485.906 217.638L485.832 217.577L485.77 217.466C485.61 217.06 486.226 216.555 487.616 215.94C489.006 215.325 490.36 214.944 491.664 214.796C492.87 214.611 494.285 214.611 495.909 214.759C497.534 214.907 498.53 215.214 498.899 215.67C499.182 216.1 499.207 216.986 498.986 218.34V218.34Z" fill="#494766"/>
<path d="M790.803 86.8879C790.474 86.8912 790.147 86.9514 789.837 87.0658V85.9167C789.837 84.3096 791.14 83 792.739 83H835.298C836.897 83 838.2 84.3096 838.2 85.9167V86.8879H790.803ZM841.101 93.6954H787.902C786.303 93.6954 785 95.005 785 96.6121V150.083C785 151.69 786.303 153 787.902 153H809.084L812.27 136.535H805.77C805.622 136.535 790.803 135.833 790.803 135.833L804.264 134.879L804.038 133.811L798.298 132.98L803.759 132.519L803.4 131.21L794.477 129.848C794.477 129.848 804.171 128.76 804.319 128.76H813.698L814.414 124.878C815.253 120.164 817.156 116.69 820.139 114.106C823.137 111.505 826.941 110.221 831.563 110.221C833.429 110.221 834.619 110.662 835.135 111.572C835.478 112.114 835.719 113.077 835.945 114.077C836.16 115.104 836.351 116.034 836.221 116.711C836.055 117.717 834.883 118.067 832.747 118.067H832.013C828.163 118.067 825.821 120.293 825.035 124.805L824.329 128.757H828.798C830.464 128.757 831.064 129.929 830.603 132.566C830.11 135.31 829.039 136.533 827.379 136.533H822.916L819.736 153H841.098C842.697 153 844 151.69 844 150.083V96.6121C844 95.839 843.695 95.0976 843.151 94.5507C842.608 94.0038 841.87 93.6962 841.101 93.6954ZM839.166 89.8046C839.165 89.5472 839.063 89.3006 838.882 89.1187C838.701 88.9367 838.456 88.8341 838.2 88.8333H790.803C790.547 88.8341 790.302 88.9367 790.121 89.1187C789.94 89.3006 789.838 89.5472 789.837 89.8046V91.75H839.166V89.8046Z" fill="#494766"/>
<g clip-path="url(#clip1_3_100)">
<path d="M579.939 41.9462V24.939H584.1V35.3944C586.138 32.9614 588.937 32.2611 591.705 32.2611C596.337 32.2611 601.486 35.3944 601.486 42.1355C601.486 42.9474 601.431 43.7151 601.283 44.4466C602.108 41.1499 605.688 39.9334 611.293 39.7986C613.062 39.7441 615.09 39.7441 616.695 39.7441V39.272C616.695 36.2192 614.763 34.9768 611.399 34.9768C608.914 34.9768 607.091 36.0039 606.886 37.7728H602.469C602.941 33.3142 607.656 32.1677 611.762 32.1677C615.437 32.1677 618.664 33.0989 620.111 35.6927L618.612 32.7877H623.488L630.595 47.0533L637.702 32.7877H641.997L629.138 58.0508H624.477L628.178 50.9984L620.127 35.8535C620.573 36.7327 620.817 37.7728 620.817 39.0697V47.5798C620.817 48.7677 620.843 49.9583 620.952 51.0528H617.103C616.994 50.1743 616.939 49.2899 616.939 48.4046C614.859 50.9439 612.374 51.7272 608.914 51.7272C603.794 51.7272 601.053 49.0245 601.053 45.8653C601.053 45.3388 601.107 44.8797 601.187 44.4595C600.147 48.7677 596.485 51.6727 591.622 51.6727C588.61 51.6727 585.76 50.5911 584.001 48.4565C584.001 49.2943 583.96 50.171 583.866 50.9958H579.786C579.865 49.561 579.91 48.1245 579.921 46.6876V43.0537H563.223C563.438 46.851 566.047 49.079 569.627 49.079C572.111 49.079 574.314 48.0389 575.058 45.8627H579.34C578.515 50.3214 573.774 51.8206 569.694 51.8206C562.279 51.901 558.995 47.7951 558.995 42.2963C558.995 36.2296 562.385 32.2326 569.774 32.2326C575.61 32.2326 579.906 35.2984 579.934 41.9332V41.9592L579.939 41.9462ZM611.536 42.5817C607.755 42.7036 605.418 43.3935 605.418 45.8653C605.418 47.4735 606.66 49.2294 609.931 49.2294C614.294 49.2294 616.631 46.838 616.631 42.9474V42.5012C615.077 42.5012 613.199 42.5272 611.498 42.5817H611.536ZM590.584 49.066C594.42 49.066 597.069 46.2829 597.069 42.0811C597.069 37.8792 594.42 35.0961 590.53 35.0961C586.694 35.0961 583.991 37.8792 583.991 42.0811C583.991 46.2829 586.639 49.066 590.475 49.066H590.584ZM575.535 40.3796C575.387 36.4889 572.591 35.0287 569.577 35.0287C566.309 35.0287 563.715 36.6627 563.295 40.3796H575.535Z" fill="#565378"/>
</g>
<defs>
<linearGradient id="paint0_linear_3_100" x1="471.179" y1="810.002" x2="471.179" y2="677.475" gradientUnits="userSpaceOnUse">
<stop stop-color="#808080" stop-opacity="0.25"/>
<stop offset="0.54" stop-color="#808080" stop-opacity="0.12"/>
<stop offset="1" stop-color="#808080" stop-opacity="0.1"/>
</linearGradient>
<clipPath id="clip0_3_100">
<rect width="949" height="551" fill="white" transform="translate(0 279)"/>
</clipPath>
<clipPath id="clip1_3_100">
<rect width="83" height="83" fill="white" transform="translate(559)"/>
</clipPath>
</defs>
</svg>
